#!OML:ASF H:\Male1\Project 1\Capture day 1\Session 1\Male1.ASF
:FULLY-SPECIFIED
:DEGREES
222
root -7.22955 15.0027 5.63858 180.174 -37.511 -177.717
lowerback 15.7175 0.579987 -4.26078
upperback 10.3356 -1.06829 -2.10109
thorax 2.19027 -1.22079 0.312175
lowerneck -7.44221 3.372 7.14692
upperneck 15.3899 3.59234 -2.12029
head 6.06752 1.86253 -1.58975
rclavicle -2.62396e-014 2.8625e-014
rhumerus -35.2276 12.823 -93.6167
rradius 49.2718
rwrist -29.5903
rhand -20.9773 0.759376
rfingers 7.12502
rthumb 5.39625 -29.1519
lclavicle -2.62396e-014 2.8625e-014
lhumerus -20.9971 -8.99596 73.6388
lradius 45.8309
lwrist 28.9409
lhand -32.747 31.3316
lfingers 7.12502
lthumb -5.96998 61.2275
rfemur -24.6143 21.27 22.8572
rtibia 35.1066
rfoot -15.3659 4.32738
rtoes -36.4661
lfemur -14.9008 -19.2028 -15.0252
ltibia 34.1442
lfoot -21.7871 7.42655
ltoes -31.3335
223
root -7.25552 15.018 5.67794 180.309 -35.5316 -178.118
lowerback 15.2459 0.636968 -4.63755
upperback 10.0065 -0.977151 -2.15172
thorax 2.0864 -1.1681 0.458511
lowerneck -7.89174 2.69138 6.43958
upperneck 16.3064 2.55682 -1.34447
head 6.36662 1.36899 -1.30668
rclavicle 1.15295e-013 -6.36111e-015
rhumerus -35.8121 13.0514 -93.7688
rradius 49.1841
rwrist -29.4443
rhand -20.8138 0.73379
rfingers 7.12502
rthumb 5.55415 -29.1734
lclavicle 1.15295e-013 -6.36111e-015
lhumerus -22.1227 -8.63258 74.206
lradius 45.6579
lwrist 28.4379
lhand -33.1162 31.6141
lfingers 7.12502
lthumb -6.32642 61.4996
rfemur -24.7484 21.1525 22.6881
rtibia 35.4936
rfoot -15.9091 4.50687
rtoes -38.2066
lfemur -13.8059 -18.8437 -15.7312
ltibia 33.2412
lfoot -21.6356 8.87072
ltoes -30.6137
224
root -7.2764 15.0358 5.71556 180.538 -33.5106 -178.575
lowerback 14.7885 0.680328 -5.09132
upperback 9.64961 -0.910001 -2.20851
thorax 1.94959 -1.12735 0.645759
lowerneck -8.21848 2.03716 5.77277
upperneck 17.0989 1.57273 -0.689412
head 6.62557 0.895612 -1.0684
rclavicle 1.28812e-013 3.18055e-014
rhumerus -36.3311 13.302 -93.8957
rradius 49.0372
rwrist -29.3004
rhand -20.4971 0.775573
rfingers 7.12502
rthumb 5.85994 -29.1234
lclavicle 1.28812e-013 3.18055e-014
lhumerus -23.2932 -8.07696 74.7139
lradius 45.5413
lwrist 27.9614
lhand -33.4556 31.8199
lfingers 7.12502
lthumb -6.65401 61.6954
rfemur -24.9985 20.7776 22.511
rtibia 36.0537
rfoot -16.5012 4.13853
rtoes -39.5915
lfemur -12.8139 -18.5974 -16.4636
ltibia 32.3334
lfoot -21.5298 10.318
ltoes -29.3244
225
root -7.2926 15.0558 5.75031 180.739 -31.4757 -178.938
lowerback 14.3574 0.694003 -5.49029
upperback 9.29082 -0.874556 -2.23815
thorax 1.79948 -1.09863 0.835279
lowerneck -8.45813 1.42497 5.22089
upperneck 17.7768 0.661813 -0.213365
head 6.85057 0.451723 -0.90298
rclavicle -1.11319e-014 2.22639e-014
rhumerus -36.7371 13.5655 -94.0043
rradius 48.8035
rwrist -29.1783
rhand -20.1518 0.869586
rfingers 7.12502
rthumb 6.19322 -29.0199
lclavicle -1.11319e-014 2.22639e-014
lhumerus -24.4748 -7.36488 75.1519
lradius 45.4597
lwrist 27.5187
lhand -33.6952 31.9537
lfingers 7.12502
lthumb -6.88538 61.8218
rfemur -25.2589 20.1698 22.4584
rtibia 36.7193
rfoot -17.0523 3.06215
rtoes -40.5237
lfemur -11.9114 -18.3753 -17.0884
ltibia 31.4635
lfoot -21.4778 11.7294
ltoes -27.7698
226
root -7.30469 15.0771 5.78075 180.815 -29.4307 -179.075
lowerback 13.9578 0.673958 -5.70967
upperback 8.95276 -0.863138 -2.20876
thorax 1.65502 -1.07515 0.989133
lowerneck -8.61903 0.852566 4.82975
upperneck 18.3299 -0.174461 0.044559
head 7.03374 0.0370252 -0.829986
rclavicle -1.43125e-014 2.06736e-014
rhumerus -37.0035 13.8184 -94.0942
rradius 48.4589
rwrist -29.0532
rhand -19.8932 0.990655
rfingers 7.12502
rthumb 6.44295 -28.8913
lclavicle -1.43125e-014 2.06736e-014
lhumerus -25.634 -6.57076 75.5279
lradius 45.3806
lwrist 27.0963
lhand -33.8094 32.0587
lfingers 7.12502
lthumb -6.99561 61.9231
rfemur -25.435 19.3869 22.6432
rtibia 37.428
rfoot -17.4412 1.26117
rtoes -40.8192
lfemur -11.0617 -18.1199 -17.4833
ltibia 30.6612
lfoot -21.4925 13.1052
ltoes -26.1665
227
root -7.31296 15.0991 5.80615 180.737 -27.3898 -178.917
lowerback 13.5924 0.613183 -5.67623
upperback 8.64547 -0.877363 -2.09662
thorax 1.52419 -1.05639 1.09107
lowerneck -8.69533 0.31892 4.59374
upperneck 18.7405 -0.92782 0.0696874
head 7.16195 -0.346682 -0.851758
rclavicle 2.38542e-014 -6.67916e-014
rhumerus -37.1243 14.0377 -94.1513
rradius 47.9978
rwrist -28.8724
rhand -19.7508 1.11982
rfingers 7.12502
rthumb 6.58037 -28.7579
lclavicle 2.38542e-014 -6.67916e-014
lhumerus -26.7425 -5.75511 75.8592
lradius 45.2704
lwrist 26.7042
lhand -33.7947 32.1225
lfingers 7.12502
lthumb -6.98137 61.9874
rfemur -25.4813 18.4804 23.1075
rtibia 38.1282
rfoot -17.5864 -1.12562
rtoes -40.2631
lfemur -10.2427 -17.839 -17.5779
ltibia 29.9366
lfoot -21.5773 14.4654
ltoes -24.622
228
root -7.3192 15.1195 5.82625 180.624 -25.3327 -178.671
lowerback 13.2398 0.531951 -5.54189
upperback 8.36731 -0.909976 -1.94408
thorax 1.41852 -1.04585 1.17999
lowerneck -8.70099 -0.180238 4.44333
upperneck 19.0285 -1.60121 -0.088864
head 7.23914 -0.701876 -0.940196
rclavicle -4.53229e-014 -3.97569e-014
rhumerus -37.1168 14.1967 -94.1526
rradius 47.4383
rwrist -28.5734
rhand -19.6861 1.22775
rfingers 7.12502
rthumb 6.64282 -28.6481
lclavicle -4.53229e-014 -3.97569e-014
lhumerus -27.7769 -4.95243 76.1684
lradius 45.0918
lwrist 26.3751
lhand -33.6667 32.0974
lfingers 7.12502
lthumb -6.85786 61.9663
rfemur -25.4316 17.4497 23.628
rtibia 38.7993
rfoot -17.5472 -3.85144
rtoes -38.8723
lfemur -9.42622 -17.5833 -17.5786
ltibia 29.2651
lfoot -21.7297 15.8776
ltoes -23.1245
229
root -7.32374 15.1374 5.84062 180.553 -23.2499 -178.473
lowerback 12.8805 0.444293 -5.42842
upperback 8.10846 -0.955376 -1.77651
thorax 1.33975 -1.04491 1.29642
lowerneck -8.64599 -0.646619 4.29038
upperneck 19.2071 -2.19739 -0.35582
head 7.26984 -1.02983 -1.05541
rclavicle -3.29983e-014 -7.95139e-015
rhumerus -37.018 14.275 -94.0758
rradius 46.8148
rwrist -28.1038
rhand -19.6347 1.28538
rfingers 7.12502
rthumb 6.69249 -28.5889
lclavicle -3.29983e-014 -7.95139e-015
lhumerus -28.7317 -4.2004 76.4827
lradius 44.8146
lwrist 26.1067
lhand -33.4283 31.9633
lfingers 7.12502
lthumb -6.62765 61.8396
rfemur -25.3369 16.2612 24.0551
rtibia 39.4316
rfoot -17.4681 -6.77652
rtoes -37.0939
lfemur -8.60289 -17.3679 -17.6232
ltibia 28.6126
lfoot -21.9641 17.3386
ltoes -21.5825
230
root -7.32665 15.1529 5.84945 180.586 -21.1313 -178.414
lowerback 12.4924 0.362536 -5.42371
upperback 7.84922 -1.00325 -1.61512
thorax 1.27997 -1.0495 1.46615
lowerneck -8.57056 -1.0839 4.06073
upperneck 19.331 -2.73274 -0.64514
head 7.28011 -1.33626 -1.15874
rclavicle 7.15625e-015 5.1684e-014
rhumerus -36.8719 14.2753 -93.9195
rradius 46.1763
rwrist -27.5174
rhand -19.5664 1.25021
rfingers 7.12502
rthumb 6.75839 -28.6219
lclavicle 7.15625e-015 5.1684e-014
lhumerus -29.6145 -3.54072 76.8269
lradius 44.4262
lwrist 25.8757
lhand -33.0897 31.7076
lfingers 7.12502
lthumb -6.30081 61.5939
rfemur -25.2772 14.846 24.2938
rtibia 40.0252
rfoot -17.3653 -9.88384
rtoes -35.8493
lfemur -7.78581 -17.1885 -17.8006
ltibia 27.9312
lfoot -22.2859 18.826
ltoes -19.9046
231
root -7.32772 15.1653 5.85234 180.721 -18.9712 -178.504
lowerback 12.07 0.299673 -5.52995
upperback 7.58152 -1.03466 -1.47282
thorax 1.23241 -1.04885 1.67508
lowerneck -8.51677 -1.506 3.72224
upperneck 19.4547 -3.24124 -0.890175
head 7.29697 -1.634 -1.22736
rclavicle 8.74653e-015 -5.1684e-014
rhumerus -36.7302 14.2144 -93.717
rradius 45.5958
rwrist -26.9916
rhand -19.5578 1.07802
rfingers 7.12502
rthumb 6.76669 -28.7939
lclavicle 8.74653e-015 -5.1684e-014
lhumerus -30.425 -2.99709 77.2038
lradius 43.9314
lwrist 25.6823
lhand -32.6837 31.31
lfingers 7.12502
lthumb -5.90885 61.2076
rfemur -25.2791 13.2383 24.3048
rtibia 40.5682
rfoot -17.3118 -12.9537
rtoes -34.958
lfemur -6.97258 -17.0414 -18.1245
ltibia 27.1992
lfoot -22.7124 20.3213
ltoes -18.03
232
root -7.32667 15.1747 5.8486 180.92 -16.7776 -178.701
lowerback 11.6197 0.260126 -5.69955
upperback 7.30823 -1.03869 -1.35336
thorax 1.1946 -1.03564 1.89191
lowerneck -8.5 -1.91633 3.29299
upperneck 19.5886 -3.73844 -1.05727
head 7.32819 -1.92623 -1.25551
rclavicle -5.56597e-014 3.10104e-014
rhumerus -36.6217 14.0931 -93.4882
rradius 45.0897
rwrist -26.5647
rhand -19.563 0.873562
rfingers 7.12502
rthumb 6.76164 -28.9985
lclavicle -5.56597e-014 3.10104e-014
lhumerus -31.1702 -2.579 77.6096
lradius 43.3518
lwrist 25.4876
lhand -32.2912 30.8271
lfingers 7.12502
lthumb -5.52989 60.7349
rfemur -25.3245 11.4904 24.1167
rtibia 41.0368
rfoot -17.3931 -15.8091
rtoes -34.1866
lfemur -6.14938 -16.9198 -18.5613
ltibia 26.4159
lfoot -23.2588 21.8125
ltoes -16.0075
233
root -7.32288 15.1818 5.83782 181.138 -14.57 -178.939
lowerback 11.159 0.243564 -5.85682
upperback 7.03454 -1.00965 -1.25633
thorax 1.16005 -1.00465 2.07486
lowerneck -8.51435 -2.31222 2.81451
upperneck 19.7239 -4.23216 -1.11573
head 7.37114 -2.21094 -1.24099
rclavicle 1.74931e-014 2.3059e-014
rhumerus -36.561 13.9367 -93.2753
rradius 44.6696
rwrist -26.3461
rhand -19.6136 0.664555
rfingers 7.12502
rthumb 6.71281 -29.209
lclavicle 1.74931e-014 2.3059e-014
lhumerus -31.8562 -2.26501 78.0269
lradius 42.723
lwrist 25.299
lhand -31.9345 30.2735
lfingers 7.12502
lthumb -5.1855 60.19
rfemur -25.3784 9.69643 23.7829
rtibia 41.3988
rfoot -17.7665 -18.2757
rtoes -32.935
lfemur -5.31177 -16.7805 -19.0432
ltibia 25.5973
lfoot -23.9039 23.267
ltoes -13.9736
